<svg width="23" height="22" viewBox="0 0 23 22" fill="none" xmlns="http://www.w3.org/2000/svg">
<path d="M11.2745 0.463524C11.4241 0.00286833 12.0759 0.00287004 12.2255 0.463525L14.5003 7.46454C14.5672 7.67055 14.7592 7.81003 14.9758 7.81003L22.3371 7.81003C22.8215 7.81003 23.0229 8.42984 22.631 8.71454L16.6756 13.0414C16.5004 13.1687 16.427 13.3944 16.494 13.6004L18.7687 20.6014C18.9184 21.0621 18.3912 21.4452 17.9993 21.1605L12.0439 16.8336C11.8686 16.7063 11.6314 16.7063 11.4561 16.8336L5.50069 21.1605C5.10883 21.4452 4.58159 21.0621 4.73127 20.6014L7.00603 13.6004C7.07297 13.3944 6.99964 13.1687 6.8244 13.0414L0.868977 8.71454C0.47712 8.42984 0.678509 7.81003 1.16287 7.81003L8.52418 7.81003C8.74079 7.81003 8.93277 7.67055 8.9997 7.46454L11.2745 0.463524Z" fill="#CCC0B5"/>
</svg>
